<svg xmlns="http://www.w3.org/2000/svg" width="267" height="1998" fill="none" viewBox="0 0 267 1998">
  <circle cx="-95" cy="118" r="118" fill="#fff" transform="rotate(90 -95 118)"/>
  <circle cx="12" cy="207" r="118" fill="#fff" transform="rotate(90 12 207)"/>
  <circle cx="12" cy="354" r="118" fill="#fff" transform="rotate(90 12 354)"/>
  <circle cx="-106" cy="422" r="118" fill="#fff" transform="rotate(90 -106 422)"/>
  <circle cx="-95" cy="1576" r="118" fill="#fff" transform="rotate(90 -95 1576)"/>
  <circle cx="12" cy="1665" r="118" fill="#fff" transform="rotate(90 12 1665)"/>
  <circle cx="12" cy="1812" r="118" fill="#fff" transform="rotate(90 12 1812)"/>
  <circle cx="-106" cy="1880" r="118" fill="#fff" transform="rotate(90 -106 1880)"/>
  <circle cx="42" cy="1137" r="118" fill="#fff" transform="rotate(90 42 1137)"/>
  <circle cx="149" cy="1226" r="118" fill="#fff" transform="rotate(90 149 1226)"/>
  <circle cx="149" cy="1373" r="118" fill="#fff" transform="rotate(90 149 1373)"/>
  <circle cx="31" cy="1441" r="118" fill="#fff" transform="rotate(90 31 1441)"/>
  <circle cx="6" cy="1290" r="118" fill="#fff" transform="rotate(90 6 1290)"/>
  <circle cx="42" cy="557" r="118" fill="#fff" transform="rotate(90 42 557)"/>
  <circle cx="149" cy="646" r="118" fill="#fff" transform="rotate(90 149 646)"/>
  <circle cx="149" cy="793" r="118" fill="#fff" transform="rotate(90 149 793)"/>
  <circle cx="31" cy="861" r="118" fill="#fff" transform="rotate(90 31 861)"/>
  <circle cx="6" cy="710" r="118" fill="#fff" transform="rotate(90 6 710)"/>
  <circle cx="-101" cy="841" r="118" fill="#fff" transform="rotate(90 -101 841)"/>
  <circle cx="6" cy="930" r="118" fill="#fff" transform="rotate(90 6 930)"/>
  <circle cx="6" cy="1077" r="118" fill="#fff" transform="rotate(90 6 1077)"/>
  <circle cx="-112" cy="1145" r="118" fill="#fff" transform="rotate(90 -112 1145)"/>
</svg>
